<svg width="53" height="44" viewBox="0 0 53 44" fill="none" xmlns="http://www.w3.org/2000/svg">
<g filter="url(#filter0_d_17_5)">
<rect width="50" height="40.8046" rx="4.5977" fill="white" shape-rendering="crispEdges"/>
<rect x="1" y="1" width="48" height="38.8046" rx="3.5977" stroke="black" stroke-width="2" shape-rendering="crispEdges"/>
<path d="M16.8951 29.2678C15.5374 29.2678 14.319 29.0851 13.2399 28.7195C12.1608 28.354 11.2383 27.797 10.4724 27.0486C9.72397 26.3002 9.14959 25.3864 8.74926 24.3072C8.36634 23.2107 8.17488 21.9314 8.17488 20.4693C8.17488 18.9724 8.37504 17.6583 8.77537 16.5269C9.1757 15.3956 9.75008 14.4383 10.4985 13.655C11.2644 12.8718 12.1608 12.2887 13.1877 11.9057C14.2146 11.5054 15.3547 11.3053 16.6079 11.3053C17.6 11.3053 18.5051 11.4271 19.3232 11.6708C20.1586 11.9144 20.881 12.28 21.4901 12.7673C22.0993 13.2373 22.5693 13.8117 22.9 14.4905C23.2481 15.1519 23.4309 15.909 23.4483 16.7619L19.5581 17.8323C19.5581 17.1187 19.4015 16.5356 19.0882 16.0831C18.7923 15.6305 18.4094 15.2911 17.9394 15.0649C17.4869 14.8212 16.9908 14.6993 16.4512 14.6993C16.0161 14.6993 15.5635 14.7951 15.0936 14.9865C14.6411 15.1606 14.2233 15.4652 13.8404 15.9003C13.4575 16.3181 13.1529 16.875 12.9266 17.5713C12.7003 18.2675 12.5872 19.1378 12.5872 20.1821C12.5872 21.5397 12.7787 22.6363 13.1616 23.4718C13.5445 24.3072 14.0754 24.9251 14.7542 25.3255C15.433 25.7084 16.1814 25.8998 16.9995 25.8998C17.9046 25.8998 18.6008 25.7084 19.0882 25.3255C19.5929 24.9251 19.9498 24.4291 20.1586 23.8373C20.3675 23.2455 20.4806 22.645 20.498 22.0358L24.1532 22.6102C24.1358 23.5501 23.9966 24.4291 23.7355 25.2471C23.4744 26.0652 23.0567 26.7788 22.4823 27.388C21.9253 27.9798 21.1856 28.441 20.2631 28.7718C19.3406 29.1025 18.2179 29.2678 16.8951 29.2678ZM26.6745 28.9023V11.6708H34.1154C35.1945 11.6708 36.1605 11.7665 37.0134 11.958C37.8837 12.132 38.6234 12.4105 39.2326 12.7934C39.8418 13.1589 40.3031 13.6376 40.6164 14.2294C40.9471 14.8038 41.1124 15.4913 41.1124 16.292C41.1124 16.9708 40.9645 17.5626 40.6686 18.0673C40.3901 18.5721 39.9463 18.9811 39.3371 19.2944C38.7279 19.6077 37.9185 19.8166 36.909 19.921V20.3649C38.5799 20.4693 39.8157 20.8696 40.6164 21.5658C41.417 22.2621 41.8174 23.202 41.8174 24.3855C41.8174 25.3951 41.5476 26.2305 41.008 26.892C40.4684 27.5534 39.6765 28.0581 38.6321 28.4062C37.5878 28.7369 36.2998 28.9023 34.7681 28.9023H26.6745ZM30.6952 25.5604H34.6114C35.6732 25.5604 36.4564 25.4125 36.9612 25.1166C37.466 24.8033 37.7183 24.3159 37.7183 23.6545C37.7183 22.9235 37.4137 22.3752 36.8045 22.0097C36.1954 21.6442 35.2642 21.4614 34.011 21.4614H30.6952V25.5604ZM30.6952 18.9028H33.4366C34.6724 18.9028 35.5775 18.7374 36.1518 18.4067C36.7262 18.0586 37.0134 17.5452 37.0134 16.8663C37.0134 16.2049 36.7436 15.7263 36.2041 15.4304C35.6819 15.1171 34.8812 14.9604 33.8021 14.9604H30.6952V18.9028Z" fill="black"/>
</g>
<defs>
<filter id="filter0_d_17_5" x="0" y="0" width="53" height="43.8046" filterUnits="userSpaceOnUse" color-interpolation-filters="sRGB">
<feFlood flood-opacity="0" result="BackgroundImageFix"/>
<feColorMatrix in="SourceAlpha" type="matrix" values="0 0 0 0 0 0 0 0 0 0 0 0 0 0 0 0 0 0 127 0" result="hardAlpha"/>
<feOffset dx="3" dy="3"/>
<feComposite in2="hardAlpha" operator="out"/>
<feColorMatrix type="matrix" values="0 0 0 0 0 0 0 0 0 0 0 0 0 0 0 0 0 0 1 0"/>
<feBlend mode="normal" in2="BackgroundImageFix" result="effect1_dropShadow_17_5"/>
<feBlend mode="normal" in="SourceGraphic" in2="effect1_dropShadow_17_5" result="shape"/>
</filter>
</defs>
</svg>
